# xmcd
#
# Track frame offsets:
#	150
#	14611
#	30314
#	46549
#	59640
#	77196
#	93473
#	104919
#	120094
#	132430
#
# Disc length: 1922 seconds
#
# Revision: 1
# Processed by: cddbd v1.4PL0 Copyright (c) Steve Scherf et al.
# Submitted via: audiograbber 1.82.02
#
DISCID=7e07800a
DTITLE=Ray Rector - Legal Tender Green
DYEAR=2002
DGENRE=Country
TTITLE0=Legal Tender Green
TTITLE1=Rules are rules
TTITLE2=Twelve Fluid Ounces
TTITLE3=My Baby gives her lovin 
TTITLE4=Happy Hour
TTITLE5=When my neon sun goes down
TTITLE6=Devil's in the icebox
TTITLE7=We don't live there anymore
TTITLE8=Cheatin on me
TTITLE9=Yum Yum
EXTD=
EXTT0=
EXTT1=
EXTT2=
EXTT3=
EXTT4=
EXTT5=
EXTT6=
EXTT7=
EXTT8=
EXTT9=
PLAYORDER=
